# Blender v3.1.2 OBJ File: 'gib.blend'
# www.blender.org
mtllib gib.mtl
o Cube
v 0.110506 0.491341 -0.442059
v 0.329376 -0.344860 -0.520375
v 0.229858 0.368025 0.520375
v 0.390814 -0.520375 0.419649
v -0.275854 0.520375 -0.358693
v -0.298025 -0.451232 -0.520375
v -0.234880 0.520375 0.459819
v -0.300159 -0.520375 0.520375
v 0.390814 0.000000 -0.520375
v -0.390814 0.000000 0.520375
v 0.390814 0.000000 0.520375
v -0.390814 0.000000 -0.520375
v 0.000000 -0.520375 -0.520375
v 0.000000 0.520375 0.520375
v 0.090655 -0.520375 0.534378
v 0.000000 0.520375 -0.520375
v 0.000000 0.000000 -0.586185
v 0.000000 0.000000 0.599012
v -0.390814 -0.520375 0.000000
v 0.390814 0.465644 0.000000
v -0.390814 0.520375 0.000000
v 0.390814 -0.520375 0.000000
v 0.461663 0.000000 0.000000
v -0.483011 0.000000 0.000000
v 0.000000 -0.520375 0.000000
v 0.000000 0.599606 0.000000
vt 0.750000 0.625000
vt 0.875000 0.750000
vt 0.750000 0.750000
vt 0.500000 0.875000
vt 0.625000 1.000000
vt 0.500000 1.000000
vt 0.500000 0.125000
vt 0.625000 0.250000
vt 0.500000 0.250000
vt 0.250000 0.625000
vt 0.375000 0.750000
vt 0.250000 0.750000
vt 0.625000 0.625000
vt 0.500000 0.750000
vt 0.500000 0.625000
vt 0.500000 0.375000
vt 0.625000 0.500000
vt 0.500000 0.500000
vt 0.375000 0.500000
vt 0.375000 0.375000
vt 0.375000 0.625000
vt 0.375000 0.250000
vt 0.375000 0.125000
vt 0.375000 1.000000
vt 0.375000 0.875000
vt 0.125000 0.750000
vt 0.125000 0.625000
vt 0.625000 0.750000
vt 0.125000 0.500000
vt 0.500000 0.000000
vt 0.375000 0.000000
vt 0.250000 0.500000
vt 0.625000 0.125000
vt 0.875000 0.500000
vt 0.750000 0.500000
vt 0.875000 0.625000
vt 0.625000 0.875000
vt 0.625000 0.375000
vt 0.625000 0.000000
vn -0.0388 0.9879 0.1504
vn -0.1944 0.1707 0.9660
vn -0.9502 0.2622 -0.1684
vn 0.0000 -1.0000 -0.0000
vn 0.9798 0.1491 0.1334
vn 0.1610 0.2443 -0.9562
vn 0.0667 -0.1252 -0.9899
vn 0.9909 -0.1349 0.0000
vn -0.9658 -0.1711 -0.1949
vn -0.0355 -0.1293 0.9910
vn 0.3513 -0.1779 0.9192
vn -0.0291 -0.1254 -0.9917
vn -0.1571 0.3245 -0.9328
vn 0.1965 0.0860 0.9767
vn 0.3124 0.9115 0.2676
vn 0.3206 0.9354 -0.1489
vn 0.0000 -0.9913 -0.1317
vn -0.9710 -0.1692 0.1692
vn 0.9780 -0.1332 -0.1604
vn 0.9798 0.1491 -0.1334
vn 0.4703 -0.8825 0.0000
vn -0.9700 0.1719 0.1719
vn -0.0879 0.9848 -0.1499
vn -0.1982 0.9778 0.0672
vn -0.2470 0.1448 0.9581
vn -0.9390 0.1664 -0.3010
vn 0.8624 0.3772 0.3375
vn 0.5928 0.1010 -0.7990
vn 0.1660 -0.0296 -0.9857
vn 0.9905 -0.0261 0.1349
vn -0.9651 -0.1985 -0.1710
vn -0.1971 -0.0343 0.9798
vn 0.1965 -0.0871 0.9766
vn -0.1660 -0.0341 -0.9855
vn -0.5027 0.1085 -0.8576
vn 0.0986 0.1487 0.9840
vn 0.5481 0.8269 0.1259
vn 0.3440 0.9283 -0.1413
vn -0.2260 -0.9741 0.0000
vn -0.9700 -0.1719 0.1719
vn 0.9758 -0.1738 -0.1329
vn 0.7459 0.4963 -0.4441
vn 0.0000 -0.9476 -0.3196
vn -0.9017 0.3058 0.3058
vn -0.1983 0.9781 -0.0636
usemtl Material
s off
f 26/1/1 7/2/1 14/3/1
f 18/4/2 7/5/2 10/6/2
f 24/7/3 5/8/3 12/9/3
f 25/10/4 4/11/4 15/12/4
f 20/13/5 11/14/5 23/15/5
f 17/16/6 1/17/6 9/18/6
f 17/16/7 2/19/7 13/20/7
f 23/15/8 4/11/8 22/21/8
f 24/7/9 6/22/9 19/23/9
f 18/4/10 8/24/10 15/25/10
f 11/14/11 15/25/11 4/11/11
f 6/22/12 17/16/12 13/20/12
f 5/8/13 17/16/13 12/9/13
f 25/10/4 8/26/4 19/27/4
f 3/28/14 18/4/14 11/14/14
f 26/1/15 3/28/15 20/13/15
f 1/17/16 26/1/16 20/13/16
f 6/29/17 25/10/17 19/27/17
f 10/30/18 19/23/18 8/31/18
f 2/19/19 23/15/19 22/21/19
f 9/18/20 20/13/20 23/15/20
f 2/19/21 25/10/21 13/32/21
f 10/30/22 21/33/22 24/7/22
f 5/34/23 26/1/23 16/35/23
f 26/1/24 21/36/24 7/2/24
f 18/4/25 14/37/25 7/5/25
f 24/7/26 21/33/26 5/8/26
f 25/10/4 22/21/4 4/11/4
f 20/13/27 3/28/27 11/14/27
f 17/16/28 16/38/28 1/17/28
f 17/16/29 9/18/29 2/19/29
f 23/15/30 11/14/30 4/11/30
f 24/7/31 12/9/31 6/22/31
f 18/4/32 10/6/32 8/24/32
f 11/14/33 18/4/33 15/25/33
f 6/22/34 12/9/34 17/16/34
f 5/8/35 16/38/35 17/16/35
f 25/10/4 15/12/4 8/26/4
f 3/28/36 14/37/36 18/4/36
f 26/1/37 14/3/37 3/28/37
f 1/17/38 16/35/38 26/1/38
f 6/29/39 13/32/39 25/10/39
f 10/30/40 24/7/40 19/23/40
f 2/19/41 9/18/41 23/15/41
f 9/18/42 1/17/42 20/13/42
f 2/19/43 22/21/43 25/10/43
f 10/30/44 7/39/44 21/33/44
f 5/34/45 21/36/45 26/1/45
