# Blender v3.1.2 OBJ File: 'grenade.blend'
# www.blender.org
mtllib grenade.mtl
o Cube
v 0.354520 0.440403 2.013233
v 0.314014 0.314009 -0.448963
v 0.265783 -0.423132 2.013233
v 0.314014 -0.316434 -0.448963
v -0.455367 0.379214 2.013233
v -0.316429 0.314009 -0.448963
v -0.465804 -0.450852 2.013233
v -0.316429 -0.316434 -0.448963
v 0.314014 0.314009 -0.434712
v -0.316429 -0.316434 -0.434712
v 0.314014 -0.316434 -0.434712
v -0.316429 0.314009 -0.434712
v -0.316429 -0.029151 -0.448963
v 0.518117 -0.041211 2.013233
v -0.520532 -0.041211 2.013233
v 0.314014 -0.029151 -0.448963
v 0.314014 -0.029151 -0.434712
v -0.316429 -0.029151 -0.434712
v -0.001208 0.314009 -0.448963
v -0.001208 -0.514506 2.013233
v -0.001208 -0.316434 -0.448963
v -0.001208 0.524142 2.013233
v -0.001208 0.314009 -0.434712
v -0.001208 -0.316434 -0.434712
v -0.001208 -0.029151 -0.448963
v -0.001208 -0.041211 2.013233
vt 0.750000 0.636079
vt 0.875000 0.750000
vt 0.750000 0.750000
vt 0.625000 0.875000
vt 0.500000 1.000000
vt 0.500000 0.875000
vt 0.625000 0.113921
vt 0.500000 0.250000
vt 0.500000 0.113921
vt 0.375000 0.636079
vt 0.250000 0.750000
vt 0.250000 0.636079
vt 0.625000 0.636079
vt 0.500000 0.750000
vt 0.500000 0.636079
vt 0.625000 0.375000
vt 0.500000 0.500000
vt 0.500000 0.375000
vt 0.375000 0.500000
vt 0.375000 0.375000
vt 0.375000 0.750000
vt 0.375000 0.250000
vt 0.375000 0.113921
vt 0.375000 1.000000
vt 0.375000 0.875000
vt 0.500000 0.000000
vt 0.375000 0.000000
vt 0.250000 0.500000
vt 0.875000 0.500000
vt 0.750000 0.500000
vt 0.625000 0.500000
vt 0.125000 0.636079
vt 0.125000 0.500000
vt 0.125000 0.750000
vt 0.625000 0.750000
vt 0.875000 0.636079
vt 0.625000 1.000000
vt 0.625000 0.250000
vt 0.625000 0.000000
vn 0.0000 0.0000 1.0000
vn 0.0000 -0.9967 -0.0807
vn -0.9965 0.0000 -0.0831
vn 0.0000 0.0000 -1.0000
vn 0.9965 0.0000 -0.0831
vn 0.0000 0.9963 -0.0855
vn 0.0000 1.0000 0.0000
vn 1.0000 0.0000 0.0000
vn -1.0000 0.0000 0.0000
vn 0.0000 -1.0000 0.0000
vn 0.0000 -0.9991 -0.0435
vn -0.1355 -0.9888 -0.0626
vn -0.9864 0.1529 -0.0601
vn 0.8343 -0.5512 -0.0076
vn 0.2288 0.9720 -0.0540
vn 0.9464 0.3215 -0.0323
vn -0.9889 -0.1321 -0.0676
vn -0.3037 0.9518 -0.0426
vn 0.3229 -0.9434 -0.0763
usemtl Material
s off
f 26/1/1 7/2/1 20/3/1
f 20/4/2 10/5/2 24/6/2
f 15/7/3 12/8/3 18/9/3
f 16/10/4 21/11/4 25/12/4
f 14/13/5 11/14/5 17/15/5
f 22/16/6 9/17/6 23/18/6
f 23/18/7 2/19/7 19/20/7
f 17/15/8 4/21/8 16/10/8
f 18/9/9 6/22/9 13/23/9
f 24/6/10 8/24/10 21/25/10
f 10/26/9 13/23/9 8/27/9
f 9/17/8 16/10/8 2/19/8
f 9/17/5 14/13/5 17/15/5
f 2/19/4 25/12/4 19/28/4
f 10/26/3 15/7/3 18/9/3
f 5/29/1 26/1/1 22/30/1
f 1/31/1 26/1/1 14/13/1
f 19/28/4 13/32/4 6/33/4
f 11/14/10 21/25/10 4/21/10
f 12/8/7 19/20/7 6/22/7
f 12/8/6 22/16/6 23/18/6
f 25/12/4 8/34/4 13/32/4
f 3/35/11 24/6/11 11/14/11
f 26/1/1 3/35/1 14/13/1
f 26/1/1 15/36/1 7/2/1
f 20/4/12 7/37/12 10/5/12
f 15/7/13 5/38/13 12/8/13
f 16/10/4 4/21/4 21/11/4
f 14/13/14 3/35/14 11/14/14
f 22/16/15 1/31/15 9/17/15
f 23/18/7 9/17/7 2/19/7
f 17/15/8 11/14/8 4/21/8
f 18/9/9 12/8/9 6/22/9
f 24/6/10 10/5/10 8/24/10
f 10/26/9 18/9/9 13/23/9
f 9/17/8 17/15/8 16/10/8
f 9/17/16 1/31/16 14/13/16
f 2/19/4 16/10/4 25/12/4
f 10/26/17 7/39/17 15/7/17
f 5/29/1 15/36/1 26/1/1
f 1/31/1 22/30/1 26/1/1
f 19/28/4 25/12/4 13/32/4
f 11/14/10 24/6/10 21/25/10
f 12/8/7 23/18/7 19/20/7
f 12/8/18 5/38/18 22/16/18
f 25/12/4 21/11/4 8/34/4
f 3/35/19 20/4/19 24/6/19
f 26/1/1 20/3/1 3/35/1
